{
  "asset": {
    "version": "2.0",
    "generator": "Mol* 3.15.0"
  },
  "scenes": [
    {
      "nodes": [
        0
      ]
    }
  ],
  "nodes": [
    {
      "mesh": 0,
      "matrix": [
        1,
        0,
        0,
        0,
        0,
        1,
        0,
        0,
        0,
        0,
        1,
        0,
        1.8673864024554874,
        7.655495646795131,
        -7.283498764038086,
        1
      ]
    }
  ],
  "meshes": [
    {
      "primitives": [
        {
          "attributes": {
            "POSITION": 0,
            "NORMAL": 1,
            "COLOR_0": 3
          },
          "indices": 2,
          "material": 0
        }
      ]
    }
  ],
  "buffers": [
    {
      "uri": "AF-Q8W3K0-F1_data.bin",
      "byteLength": 11456976
    }
  ],
  "bufferViews": [
    {
      "buffer": 0,
      "byteOffset": 0,
      "byteLength": 2848824,
      "target": 34962
    },
    {
      "buffer": 0,
      "byteOffset": 2848824,
      "byteLength": 2848824,
      "target": 34962
    },
    {
      "buffer": 0,
      "byteOffset": 5697648,
      "byteLength": 4809720,
      "target": 34963
    },
    {
      "buffer": 0,
      "byteOffset": 10507368,
      "byteLength": 949608,
      "target": 34962
    }
  ],
  "accessors": [
    {
      "bufferView": 0,
      "byteOffset": 0,
      "componentType": 5126,
      "count": 237402,
      "type": "VEC3",
      "min": [
        -52.8745231628418,
        -48.25621795654297,
        -32.72285461425781
      ],
      "max": [
        49.673187255859375,
        31.05478858947754,
        52.15275955200195
      ]
    },
    {
      "bufferView": 1,
      "byteOffset": 0,
      "componentType": 5126,
      "count": 237402,
      "type": "VEC3"
    },
    {
      "bufferView": 2,
      "byteOffset": 0,
      "componentType": 5125,
      "count": 1202430,
      "type": "SCALAR"
    },
    {
      "bufferView": 3,
      "byteOffset": 0,
      "componentType": 5121,
      "count": 237402,
      "type": "VEC4",
      "normalized": true
    }
  ],
  "materials": [
    {
      "pbrMetallicRoughness": {
        "baseColorFactor": [
          1,
          1,
          1,
          1
        ],
        "metallicFactor": 0,
        "roughnessFactor": 1
      }
    }
  ]
}